<svg id="Layer_1" data-name="Layer 1" xmlns="http://www.w3.org/2000/svg" viewBox="0 0 500 500"><defs><style>.cls-1{fill:#3d3d3d;}.cls-2{fill:#565656;}.cls-3{fill:#1e1e1e;}.cls-4{fill:#111;}.cls-5{fill:#494949;}.cls-6{fill:none;stroke:#000;stroke-linecap:round;stroke-linejoin:round;stroke-width:15px;}.cls-7{fill:#2b2b2b;}.cls-8{fill:#0f0f0f;}.cls-9{fill:#969696;}</style></defs><title>dslr-camera</title><path class="cls-1" d="M452.44,446.17H47.56A39.46,39.46,0,0,1,8.1,406.72V200.33a31.56,31.56,0,0,1,3.34-14.11l10.15-20.31a31.56,31.56,0,0,1,21.65-16.75L165,123.24a47.76,47.76,0,0,0,30.6-21.47l16.54-26.59a45.25,45.25,0,0,1,38.43-21.35h85.65a45.27,45.27,0,0,1,40.66,25.39L388,102a47.72,47.72,0,0,0,20.8,21.37l51.06,26.68A59.7,59.7,0,0,1,491.9,203V406.72A39.46,39.46,0,0,1,452.44,446.17Z"/><path class="cls-2" d="M390.36,106.33A49,49,0,0,1,388,102L376.83,79.22a45.27,45.27,0,0,0-40.66-25.39H250.52a45.25,45.25,0,0,0-38.43,21.35l-16.54,26.59a47.52,47.52,0,0,1-3.24,4.56Z"/><path class="cls-3" d="M103.62,214.33V446.17H452.44a39.46,39.46,0,0,0,39.46-39.45V214.33Z"/><rect class="cls-4" x="103.62" y="214.33" width="36" height="231.84"/><circle class="cls-5" cx="290.2" cy="279.76" r="138.69"/><path class="cls-6" d="M452.44,446.17H47.56A39.46,39.46,0,0,1,8.1,406.72V200.33a31.56,31.56,0,0,1,3.34-14.11l10.15-20.31a31.56,31.56,0,0,1,21.65-16.75L165,123.24a47.76,47.76,0,0,0,30.6-21.47l16.54-26.59a45.25,45.25,0,0,1,38.43-21.35h85.65a45.27,45.27,0,0,1,40.66,25.39L388,102a47.72,47.72,0,0,0,20.8,21.37l51.06,26.68A59.7,59.7,0,0,1,491.9,203V406.72A39.46,39.46,0,0,1,452.44,446.17Z"/><circle class="cls-6" cx="290.2" cy="279.76" r="138.69"/><circle class="cls-7" cx="290.2" cy="279.76" r="107.46"/><circle class="cls-6" cx="290.2" cy="279.76" r="107.46"/><circle class="cls-8" cx="290.2" cy="279.76" r="55.31"/><circle class="cls-6" cx="290.2" cy="279.76" r="55.31"/><path class="cls-8" d="M81.22,141.07l-3.81-16.15A19.4,19.4,0,0,1,92.1,101.53l40.79-9a19.4,19.4,0,0,1,23.05,14.43l4.14,17.34Z"/><path class="cls-6" d="M81.22,141.07l-3.81-16.15A19.4,19.4,0,0,1,92.1,101.53l40.79-9a19.4,19.4,0,0,1,23.05,14.43l4.14,17.34Z"/><line class="cls-6" x1="8.1" y1="214.22" x2="167.94" y2="214.22"/><circle class="cls-8" cx="71.46" cy="178.61" r="15.25"/><circle class="cls-6" cx="71.46" cy="178.61" r="15.25"/><path class="cls-9" d="M423.07,238.83h-.32a139.46,139.46,0,0,1,0,81.85h.32a40.94,40.94,0,0,0,0-81.87Z"/><path class="cls-6" d="M423.07,238.83h-.32a139.46,139.46,0,0,1,0,81.85h.32a40.94,40.94,0,0,0,0-81.87Z"/><line class="cls-6" x1="412.45" y1="214.22" x2="491.9" y2="214.22"/><path class="cls-3" d="M103.62,214.33H8.1V406.72a39.46,39.46,0,0,0,39.46,39.45h56.06Z"/><path class="cls-6" d="M47.56,446.17h56.13V214.22H8.1v192.5A39.46,39.46,0,0,0,47.56,446.17Z"/><line class="cls-6" x1="428.89" y1="178.61" x2="452.17" y2="178.61"/><line class="cls-6" x1="241.66" y1="106.09" x2="345.51" y2="106.09"/></svg>